<svg width="192" height="82" viewBox="0 0 192 82" fill="none" xmlns="http://www.w3.org/2000/svg">
<path d="M14.1529 0C14.1529 0 17.1134 3.27105 17.1134 10.9179C17.1134 21.7636 5.11236 30.3637 5.11236 41.426C5.11236 54.7774 12.882 58.9871 12.882 64.6411C12.882 67.2911 12.0949 68.3237 12.0949 68.3237C12.0949 68.3237 0 58.2001 0 44.4804C0 32.0389 7.94294 25.3524 11.3584 20.0523C13.1347 17.3012 13.7485 15.9292 13.8352 14.9183C13.8352 14.9183 12.8242 13.2647 12.8242 10.788C12.8242 8.37619 14.4706 4.83075 14.4706 2.78003C14.4778 0.974815 14.1529 0 14.1529 0Z" fill="#A10E2F"/>
<path d="M40.6751 23.4822C40.0035 22.4352 34.3424 20.9116 32.4505 20.7888L31.8729 23.6339C31.8729 23.6339 33.7936 23.9444 36.3642 25.2947C39.5414 26.9699 40.1552 28.3707 40.1552 28.3707C40.1552 28.3707 41.3394 24.717 40.6751 23.4822Z" fill="#A10E2F"/>
<path d="M38.8049 67.9554C38.8049 67.9554 39.7508 64.9588 39.5991 62.1787C39.2887 56.5537 36.6675 54.1708 30.3131 47.6576C26.876 44.1411 28.1974 39.8952 28.1974 39.8952C28.1974 39.8952 23.3233 38.0611 24.2621 34.2124C24.8181 31.945 27.367 31.6779 29.6344 31.4324C35.5266 30.7969 35.7793 28.3346 36.2703 27.1071C36.2703 27.1071 39.3825 28.8329 38.6171 31.3746C37.8517 33.9091 35.2594 33.8802 34.0969 33.7864C32.5949 33.6636 27.9808 32.7177 27.3381 34.7323C26.7388 36.6242 28.8978 38.451 32.6021 39.4403C37.9817 40.8772 40.1263 39.0431 40.1263 39.0431C40.1263 39.0431 40.018 41.1011 39.1803 41.852C38.1983 42.733 36.0898 42.5091 36.0898 42.5091C36.0898 42.5091 34.6817 44.3577 37.9817 46.5889C40.2851 48.1414 45.1375 49.8239 45.1375 56.0627C45.1303 63.0669 38.8049 67.9554 38.8049 67.9554Z" fill="#A10E2F"/>
<path d="M29.0495 36.8336C29.0495 36.8336 30.3348 35.18 32.8982 35.3605C35.8082 35.5699 37.7145 35.5988 39.758 35.0717C43.6212 34.0824 45.1231 32.0317 45.1231 32.0317C45.1231 32.0317 43.7151 35.3316 40.4729 36.8913C38.8771 37.6568 36.5447 37.9384 33.9669 37.2018C29.9377 36.0393 29.0495 36.8336 29.0495 36.8336Z" fill="#A10E2F"/>
<path d="M30.6742 24.9047C32.2267 25.1213 34.1258 25.8579 34.8623 26.2839C34.8623 26.2839 34.7684 27.9086 33.2954 28.8545C31.8512 29.786 29.8366 29.8799 27.8509 30.1615C25.5113 30.4937 23.2512 31.5768 22.7602 33.6853C21.6626 38.4438 26.5728 40.7978 26.5728 40.7978C26.5728 40.7978 25.4608 44.8704 29.5117 48.9646C35.4977 55.0518 38.0611 57.5213 38.0611 62.7781C38.0611 72.9017 27.3671 82 27.3671 82C27.3671 82 32.891 75.2485 32.891 67.1539C32.891 59.9114 28.8546 58.1495 25.829 55.5428C23.2873 53.3404 21.2149 50.5315 20.9477 44.531C20.4278 47.6143 18.7959 48.9285 18.7959 52.3078C18.7959 54.8207 19.6696 56.5609 19.6696 56.5609C19.6696 56.5609 13.828 52.9649 13.828 46.2134C13.828 41.686 16.8824 37.4401 16.8752 34.2918C15.9292 37.5918 11.3656 40.9206 11.3656 47.1666C11.3656 52.5967 13.8424 56.0194 13.8424 56.0194C13.8424 56.0194 7.04758 50.9648 7.04758 41.5127C7.04758 32.9632 14.8172 25.2874 14.8172 25.2874C14.8172 25.2874 14.2901 20.0379 17.4095 20.0379C19.2725 20.0379 19.7635 21.5976 19.7635 21.5976C19.7635 21.5976 24.7892 19.7418 30.9053 20.5866L30.3854 23.3089L29.1939 23.1645C29.1939 23.1645 29.2878 23.6555 29.2878 23.9877C29.2878 25.0491 28.4285 25.9156 27.3526 25.9156C26.2839 25.9156 25.4174 25.0564 25.4174 23.9877C25.4174 23.5761 25.5474 23.2006 25.764 22.8901C23.5256 22.7746 19.0559 23.4966 19.0559 23.7061C19.0559 23.836 22.1464 23.7422 23.9227 24.0093C23.9227 25.9156 25.4319 27.432 27.3526 27.432C28.999 27.4465 30.3132 26.4283 30.6742 24.9047Z" fill="#A10E2F"/>
<path d="M20.6589 63.9262C20.6661 63.3197 21.1715 62.8286 21.7853 62.8431C22.3919 62.8503 22.8829 63.3558 22.8684 63.9623C22.854 64.5761 22.3558 65.0599 21.742 65.0454C21.1354 65.0454 20.6516 64.54 20.6589 63.9262ZM15.9003 71.7681C15.9003 71.7681 16.7379 71.1471 17.5539 70.8582C18.3698 70.5622 19.2508 70.2733 19.7851 69.5657C20.3195 68.8653 20.6733 67.8688 20.796 67.2839C20.9188 66.7062 20.9693 66.1141 21.7203 66.0058C22.4641 66.1358 22.5218 66.7279 22.6229 67.32C22.724 67.9049 23.0417 68.9086 23.5544 69.6379C24.0599 70.36 24.9336 70.6777 25.7351 71.0027C26.5438 71.3276 27.367 71.9702 27.367 71.9702C27.367 71.9702 27.071 70.9593 27.0421 70.0928C27.0132 69.2263 27.0132 68.3021 26.5005 67.5727C25.9878 66.8507 25.1502 66.2008 24.6375 65.9047C24.1176 65.6087 23.5761 65.3776 23.706 64.6339C24.0599 63.9623 24.6375 64.1212 25.2224 64.2006C25.8073 64.2873 26.876 64.2873 27.7281 64.0345C28.5801 63.7746 29.1506 63.0453 29.7066 62.3809C30.2626 61.7166 31.1435 61.1101 31.1435 61.1101C31.1435 61.1101 30.0604 61.0595 29.23 60.8212C28.3996 60.583 27.5042 60.2941 26.6594 60.5541C25.8073 60.814 24.9336 61.4061 24.4931 61.8105C24.0527 62.2076 23.6627 62.6553 22.9984 62.3015C22.4713 61.7527 22.7962 61.2545 23.0562 60.7202C23.3161 60.193 23.6483 59.1893 23.6699 58.3012C23.6844 57.4202 23.1645 56.6476 22.7024 55.9111C22.2402 55.1818 21.9369 54.1636 21.9369 54.1636C21.9369 54.1636 21.5976 55.1673 21.1138 55.8822C20.63 56.597 20.0812 57.348 20.0667 58.229C20.0523 59.1099 20.3484 60.128 20.5939 60.6696C20.8322 61.2112 21.1426 61.7239 20.5939 62.251C19.9151 62.5831 19.5396 62.121 19.1136 61.7022C18.6876 61.2906 17.8355 60.6624 16.9979 60.3736C16.1603 60.0847 15.2721 60.3447 14.4273 60.5541C13.5896 60.7635 12.5498 60.7418 12.5498 60.7418C12.5498 60.7418 13.3658 61.4061 13.8929 62.0849C14.4273 62.7709 14.976 63.5218 15.8064 63.8107C16.6368 64.0995 17.6983 64.1284 18.2832 64.0634C18.8753 63.9984 19.453 63.8684 19.7851 64.5472C19.8934 65.2982 19.3374 65.5148 18.8103 65.7892C18.2832 66.0636 17.4239 66.6846 16.8896 67.385C16.3624 68.0926 16.3263 69.0241 16.2686 69.8834C16.2252 70.7644 15.9003 71.7681 15.9003 71.7681Z" fill="#A10E2F"/>
<path d="M44.1844 42.8558C44.1844 42.3358 44.6104 41.9098 45.1303 41.9098C45.6502 41.9098 46.0762 42.3358 46.0762 42.8558C46.0762 43.3829 45.6502 43.8017 45.1303 43.8017C44.6104 43.8017 44.1844 43.3829 44.1844 42.8558ZM48.6324 40.509C48.5097 40.5667 48.3653 40.6028 48.2208 40.6028C47.6937 40.6028 47.2677 40.1768 47.2677 39.6569C47.2677 39.137 47.6937 38.711 48.2208 38.711L48.4014 38.6604C48.1197 37.0646 47.672 35.5338 47.0872 34.0608C47.0872 34.4579 46.9355 35.0356 46.5673 35.3388C45.8018 35.9743 44.2421 36.8985 45.4769 38.6388C46.1557 39.5919 46.0835 39.9024 45.7296 40.2129C45.2964 40.6101 44.7909 40.2201 44.2133 39.6858C43.2962 38.8337 42.6536 38.646 41.8881 39.1659C40.9639 39.7941 41.1877 40.6606 41.3971 41.3971C41.6138 42.1337 41.6426 42.2203 41.6715 42.8341C41.6426 43.4479 41.6065 43.5345 41.3971 44.271C41.1805 45.0003 40.9639 45.8741 41.8881 46.5023C42.6536 47.0222 43.2962 46.8417 44.2133 45.9824C44.7909 45.4408 45.2964 45.0509 45.7296 45.4553C46.0762 45.773 46.1557 46.0763 45.4769 47.0366C44.2421 48.7696 45.8091 49.6867 46.5673 50.3293C46.9355 50.6326 47.0872 51.2175 47.0872 51.6074C47.6865 50.1199 48.1342 48.5674 48.4158 46.9572H48.2208C47.6937 46.9572 47.2677 46.5312 47.2677 46.0113C47.2677 45.4914 47.6937 45.0653 48.2208 45.0653C48.3725 45.0653 48.5241 45.1014 48.6541 45.1664L48.7046 44.0255C48.553 44.0905 48.3941 44.1266 48.2208 44.1266C47.5276 44.1266 46.9716 43.5634 46.9716 42.8702C46.9716 42.177 47.5349 41.621 48.2208 41.621C48.4086 41.621 48.5819 41.6643 48.7407 41.7293L48.6324 40.509Z" fill="#A10E2F"/>
<path d="M54.9796 40.3501H60.2869C64.4606 40.3501 67.2695 38.3716 67.2695 33.5048C67.2695 28.6379 64.4606 26.6594 60.2869 26.6594H54.9796V40.3501ZM58.4023 29.5477H60.3447C62.9226 29.5477 63.8468 31.2952 63.8468 33.512C63.8468 35.7288 62.9226 37.4762 60.3664 37.4762H58.4023V29.5477ZM79.5016 40.3501V37.6928H72.2736V34.4651H78.4835V31.8079H72.2736V29.3167H78.924V26.6594H68.8509V40.3501H79.5016ZM85.8054 40.3501H88.9176V29.721H88.9537L91.741 40.3573H94.7593L97.4671 29.721H97.5032V40.3573H100.731V26.6594H95.7702L93.2718 36.8336H93.2357L90.8095 26.6594H85.791V40.3501H85.8054ZM112.385 33.5048C112.385 35.6205 111.425 37.8517 108.883 37.8517C106.19 37.8517 105.381 35.5049 105.381 33.5048C105.381 30.4287 106.883 29.1578 108.883 29.1578C111.418 29.1578 112.385 31.3529 112.385 33.5048ZM115.808 33.5048C115.808 29.656 113.252 26.2767 108.883 26.2767C104.515 26.2767 101.958 29.6633 101.958 33.5048C101.958 37.3462 104.515 40.7328 108.883 40.7328C113.245 40.74 115.808 37.3535 115.808 33.5048ZM117 40.3501H120.112V31.7356H120.148L125.166 40.3501H128.589V26.6594H125.477V35.4111H125.441L120.458 26.6594H117V40.3501ZM129.766 29.3167H133.34V40.3573H136.763V29.3167H140.337V26.6594H129.759V29.3167H129.766ZM141.709 40.3501H145.132V34.8478H151.652V32.1978H145.132V29.3167H152.172V26.6594H141.709V40.3501ZM163.458 33.5048C163.458 35.6205 162.498 37.8517 159.956 37.8517C157.263 37.8517 156.454 35.5049 156.454 33.5048C156.454 30.4287 157.956 29.1578 159.956 29.1578C162.498 29.1578 163.458 31.3529 163.458 33.5048ZM166.881 33.5048C166.881 29.656 164.325 26.2767 159.956 26.2767C155.595 26.2767 153.032 29.6633 153.032 33.5048C153.032 37.3462 155.588 40.7328 159.956 40.7328C164.325 40.74 166.881 37.3535 166.881 33.5048ZM171.589 29.2011H174.723C175.821 29.2228 176.55 29.7788 176.55 31.0497C176.55 32.3205 175.821 32.8765 174.723 32.8982H171.589V29.2011ZM168.166 40.3501H171.589V35.4255H173.763L176.456 40.3501H180.283L177.149 34.8478C178.861 34.3496 179.973 32.9271 179.973 31.158C179.973 28.0819 178.088 26.6594 175.012 26.6594H168.166V40.3501ZM180.615 29.3167H184.19V40.3573H187.612V29.3167H191.187V26.6594H180.608V29.3167H180.615Z" fill="black"/>
<path d="M69.0242 43.1374H64.8794V53.6437C64.8794 55.5139 64.1573 56.8931 61.9911 56.8931C59.8465 56.8931 59.1244 55.5139 59.1244 53.6437V43.1374H54.9796V53.9975C54.9796 58.5611 58.8211 60.2725 61.9911 60.2725C65.1827 60.2725 69.0242 58.5683 69.0242 53.9975V43.1374ZM70.981 59.8031H74.7503V49.3184H74.7936L80.8736 59.8031H85.0184V43.1374H81.2491V53.7881H81.2057L75.1763 43.1374H70.9882V59.8031H70.981ZM86.9536 59.8031H91.0983V43.1374H86.9536V59.8031ZM97.922 59.8031H102.32L108.046 43.1446H103.691L100.204 55.0229H100.16L96.7811 43.1374H92.3764L97.922 59.8031ZM121.765 59.8031V56.5754H113.014V52.64H120.538V49.4123H113.014V46.3723H121.072V43.1446H108.869V59.8031H121.765ZM127.629 46.2279H131.427C132.755 46.2496 133.636 46.9283 133.636 48.4736C133.636 50.0188 132.748 50.6976 131.427 50.7193H127.629V46.2279ZM123.484 59.8031H127.629V53.8098H130.257L133.514 59.8031H138.149L134.351 53.1094C136.424 52.5028 137.774 50.7698 137.774 48.618C137.774 44.8704 135.492 43.1446 131.766 43.1446H123.477V59.8031H123.484ZM138.272 56.8786C140.532 59.3554 142.93 60.2725 145.746 60.2725C148.843 60.2725 153.335 59.3337 153.335 54.3297C153.335 51.1453 150.613 50.1199 147.305 49.5784L145.724 49.3184C144.143 49.0585 143.421 48.618 143.421 47.7298C143.421 46.6539 144.814 46.0474 145.775 46.0474C147.522 46.0474 149.125 46.82 150.223 48.1559L153.364 45.8885C151.501 43.8089 148.8 42.6825 146.049 42.6825C142.511 42.6825 139.276 44.3433 139.276 48.3653C139.276 50.8204 140.951 52.4595 144.027 52.9505L147.472 53.5137C148.706 53.7231 149.335 54.142 149.335 54.9868C149.335 56.4382 147.334 56.9075 146.237 56.9075C144.258 56.9075 142.886 56.1349 141.442 54.8279L138.272 56.8786ZM155.313 59.8031H159.458V43.1374H155.313V59.8031ZM160.881 46.3651H165.213V59.7959H169.358V46.3651H173.69V43.1374H160.888V46.3651H160.881ZM180.767 59.8031H184.912V52.0335L191.201 43.1446H186.356L182.839 48.8996L179.323 43.1446H174.477L180.767 52.0335V59.8031Z" fill="black"/>
<path d="M60.879 72.158L58.4961 68.0999L57.1169 69.5296V72.1508H54.9868V63.2113H57.1169V66.8579L60.4602 63.2113H63.1608L59.9908 66.5329L63.3991 72.158H60.879Z" fill="black"/>
<path d="M69.9628 72.158L69.5224 70.7283H66.2297L65.7892 72.158H63.4063L66.7279 63.2113H69.0602L72.3529 72.158H69.9628ZM67.8471 65.3415L66.7423 69.118H69.0097L67.8471 65.3415Z" fill="black"/>
<path d="M75.1474 70.3961H79.9998V72.158H72.3818V70.4755L77.3353 64.9516H72.8006V63.2113H80.0215V64.9588L75.1474 70.3961Z" fill="black"/>
<path d="M86.6502 72.158L86.2098 70.7283H82.917L82.4766 72.158H80.0937L83.4153 63.2113H85.7476L89.0403 72.158H86.6502ZM84.5345 65.3415L83.4297 69.118H85.6971L84.5345 65.3415Z" fill="black"/>
<path d="M95.0553 72.158L92.6724 68.0999L91.2932 69.5296V72.1508H89.1631V63.2113H91.2932V66.8579L94.6365 63.2113H97.3371L94.1671 66.5329L97.5754 72.158H95.0553Z" fill="black"/>
<path d="M103.439 72.158V68.3454H100.168V72.158H97.9147V63.2113H100.168V66.4463H103.439V63.2113H105.684V72.158H103.439Z" fill="black"/>
<path d="M112.501 65.8758C111.851 65.2043 111.122 64.7638 110.154 64.7638C109.244 64.7638 108.825 65.2982 108.825 65.717C108.825 66.2008 109.208 66.4246 109.966 66.5402L110.956 66.6773C113.288 67.0095 114.248 67.7172 114.248 69.248C114.248 71.1398 112.739 72.3674 110.183 72.3674C108.089 72.3674 107.013 71.6236 106.103 70.5549L107.8 69.479C108.392 70.2011 109.425 70.6055 110.385 70.6055C111.042 70.6055 112.032 70.3167 112.032 69.5657C112.032 68.9303 111.273 68.757 110.472 68.6559L109.446 68.5187C107.872 68.302 106.594 67.5655 106.594 65.9986C106.594 64.2367 107.901 63.0092 110.205 63.0092C112.097 63.0092 113.274 63.8684 114.147 64.7061L112.501 65.8758Z" fill="black"/>
<path d="M118.877 64.9732V72.158H116.624V64.9732H114.292V63.2113H121.202V64.9732H118.877Z" fill="black"/>
<path d="M125.881 72.158L125.441 70.7283H122.148L121.707 72.158H119.325L122.646 63.2113H124.979L128.271 72.158H125.881ZM123.765 65.3415L122.661 69.118H124.928L123.765 65.3415Z" fill="black"/>
<path d="M133.853 72.158L130.683 66.8073V72.158H128.531V63.2113H130.726L133.911 68.6631V63.2113H136.055V72.158H133.853Z" fill="black"/>
</svg>
